<svg xmlns="http://www.w3.org/2000/svg" viewBox="0 0 1320.46 1256.19"><defs><style>.cls-1{fill:#fce1e0;}.cls-2{fill:#327cbf;}</style></defs><g id="Layer_2" data-name="Layer 2"><g id="outlines"><path class="cls-1" d="M498.93,42.4c-11.57,4.63-23,9.52-34.23,14.84V1140.92c11.21,5.32,22.66,10.22,34.23,14.85Z"/><path class="cls-1" d="M567.39,19.64c-11.56,3.06-22.95,6.53-34.23,10.26V1168.27c11.28,3.72,22.67,7.19,34.23,10.26Z"/><path class="cls-1" d="M704.31,0q-17.23.48-34.23,1.91V1196.26q17,1.44,34.23,1.91Z"/><path class="cls-1" d="M430.47,74.91c-11.66,6.49-23.05,13.4-34.23,20.63V1102.63c11.18,7.23,22.57,14.14,34.23,20.63Z"/><path class="cls-1" d="M635.85,5.75c-11.5,1.64-22.94,3.52-34.23,5.82v1175c11.29,2.29,22.73,4.17,34.23,5.82Z"/><path class="cls-1" d="M156.63,397.85A597.57,597.57,0,0,0,122.4,579.76v38.65a597.5,597.5,0,0,0,34.23,181.9Z"/><path class="cls-1" d="M225.09,262.78A600.53,600.53,0,0,0,190.86,320V878.19a600.68,600.68,0,0,0,34.23,57.2Z"/><path class="cls-1" d="M362,119.23c-11.78,8.85-23.14,18.22-34.23,27.89v903.93c11.09,9.66,22.45,19,34.23,27.88Z"/><path class="cls-1" d="M293.55,179.31c-11.91,12.14-23.37,24.72-34.23,37.84V981c10.86,13.11,22.32,25.69,34.23,37.84Z"/><path class="cls-1" d="M772.78,1.91Q755.79.45,738.54,0V1198.17q17.25-.5,34.24-1.91Z"/><path class="cls-1" d="M1252,320a599.44,599.44,0,0,0-34.23-57.2V935.39a600.68,600.68,0,0,0,34.23-57.2Z"/><path class="cls-1" d="M1183.54,217.15c-10.86-13.12-22.32-25.7-34.23-37.84v839.55c11.91-12.15,23.37-24.73,34.23-37.84Z"/><path class="cls-1" d="M1320.46,579.76a597.44,597.44,0,0,0-34.23-181.9V800.31a597.5,597.5,0,0,0,34.23-181.9Z"/><path class="cls-1" d="M1115.08,147.12c-11.09-9.67-22.45-19-34.23-27.89v959.7c11.78-8.84,23.14-18.22,34.23-27.88Z"/><path class="cls-1" d="M909.7,29.9c-11.28-3.73-22.67-7.2-34.23-10.26V1178.53c11.56-3.07,22.95-6.53,34.23-10.26Z"/><path class="cls-1" d="M1046.62,95.54c-11.17-7.23-22.57-14.14-34.23-20.63V1123.26c11.66-6.49,23.06-13.4,34.23-20.63Z"/><path class="cls-1" d="M841.24,11.57C830,9.27,818.52,7.39,807,5.75V1192.42c11.51-1.65,22.94-3.53,34.23-5.82Z"/><path class="cls-1" d="M978.16,57.24C967,51.92,955.5,47,943.93,42.4V1155.77c11.57-4.63,23-9.53,34.23-14.85Z"/><circle class="cls-2" cx="599.52" cy="656.67" r="599.52"/></g></g></svg>