<svg xmlns="http://www.w3.org/2000/svg" viewBox="0 0 1199.73 1130.38"><defs><style>.cls-1{fill:#fdcc2a;}.cls-2{fill:#f05b4d;}.cls-3{fill:#fce1e0;}</style></defs><g id="Layer_2" data-name="Layer 2"><g id="outlines"><path class="cls-1" d="M781.3,456.62c0,252.18-204.44,456.62-456.62,456.62A455.2,455.2,0,0,1,1.8,779.5L0,135.55A455.24,455.24,0,0,1,324.68,0C576.86,0,781.3,204.43,781.3,456.62Z"/><polygon class="cls-2" points="818.17 989.43 436.61 1130.38 508.95 739.3 581.29 348.22 890.51 598.35 1199.73 848.47 818.17 989.43"/><path class="cls-3" d="M454.55,55.64c-12.08-1.76-24.32-3-36.69-3.79V963q18.56-1.18,36.69-3.78Z"/><path class="cls-3" d="M381.18,51c-12.35.19-24.6.81-36.69,2V961.89c12.09,1.16,24.34,1.77,36.69,2Z"/><path class="cls-3" d="M234.43,77.48C221.94,82,209.72,87,197.75,92.5V922.34c12,5.51,24.18,10.56,36.68,15Z"/><path class="cls-3" d="M124.38,879.9q17.73,12.58,36.68,23.49V111.44q-18.93,10.89-36.68,23.49Z"/><path class="cls-3" d="M527.92,72.61c-12-3.85-24.26-7.16-36.69-10V952.25c12.43-2.87,24.67-6.18,36.69-10Z"/><path class="cls-3" d="M307.8,58c-12.4,2.21-24.65,4.83-36.68,8V948.78c12,3.19,24.28,5.82,36.68,8Z"/><path class="cls-3" d="M821.4,362.71a454.08,454.08,0,0,0-36.68-81.85V734a454.08,454.08,0,0,0,36.68-81.85Z"/><path class="cls-3" d="M601.29,103.51C589.35,97.2,577.14,91.35,564.6,86.1V928.73c12.54-5.25,24.75-11.1,36.69-17.4Z"/><path class="cls-3" d="M87.69,163.9c-8.25,7.23-16.33,14.65-24,22.45l1.8,643.94c7.16,7.16,14.63,14,22.24,20.65Z"/><path class="cls-3" d="M674.66,151.83Q657,137.61,638,125.16V889.68q19-12.45,36.68-26.68Z"/><path class="cls-3" d="M748,226.32a460.78,460.78,0,0,0-36.68-41.64V830.15A460.78,460.78,0,0,0,748,788.51Z"/></g></g></svg>