<svg xmlns="http://www.w3.org/2000/svg" viewBox="0 0 1072.61 1629.59"><defs><style>.cls-1{fill:#fdcc2a;}.cls-2{fill:#f05b4d;}.cls-3{fill:#fce1e0;}</style></defs><g id="Layer_2" data-name="Layer 2"><g id="outlines"><polygon class="cls-1" points="481.74 1383.09 122.95 1136.58 597.78 829.82 1072.62 523.07 956.57 1076.33 840.53 1629.59 481.74 1383.09"/><rect class="cls-2" x="-366.23" y="366.23" width="1427.74" height="695.28" transform="translate(1061.51 366.23) rotate(90)"/><rect class="cls-3" x="184.34" y="96.33" width="35.27" height="1427.74"/><rect class="cls-3" x="113.81" y="96.33" width="35.27" height="1427.74"/><rect class="cls-3" x="607.52" y="96.33" width="35.27" height="1427.74"/><rect class="cls-3" x="254.87" y="96.33" width="35.27" height="1427.74"/><rect class="cls-3" x="325.4" y="96.33" width="35.26" height="1427.74"/><rect class="cls-3" x="678.05" y="96.33" width="35.27" height="1427.74"/><rect class="cls-3" x="395.93" y="96.33" width="35.27" height="1427.74"/><rect class="cls-3" x="748.58" y="96.33" width="35.27" height="1427.74"/><rect class="cls-3" x="536.99" y="96.33" width="35.27" height="1427.74"/><rect class="cls-3" x="466.46" y="96.33" width="35.26" height="1427.74"/></g></g></svg>