<svg xmlns="http://www.w3.org/2000/svg" viewBox="0 0 992.21 1344"><defs><style>.cls-1{fill:#565451;}</style></defs><g id="Layer_2" data-name="Layer 2"><g id="Layer_9" data-name="Layer 9"><path class="cls-1" d="M953.1,554.41c-20.1.56-33.72-1.42-55.54,4s-60.36.28-61.77,12.18,4.25,19.65,6.8,28.62c1.31,4.62-19.41,9.14-38.07,17.48-17.62,7.87-33.08,19.67-37,20.4-8.12,1.51-6.23-12.66-17.38-11.33s-.38,20-7.93,22.67-12.66-14.55-21.54-11,.57,10-1.51,20.78-84.45,45.34-103.91,49.12-40.43-21.16-57.71-28.24-17.53,0-26.63-5.73c-7.86-5-3.7-14.11-13.61-20.63s-11-3.21-17.57-9.35-5.1-87.85,1.13-93.23,22.39-1.14,24.65-12.47S514.15,525.5,513,502s5.66-99.75-2.84-112.22-49-41.94-72.54-68S415,267.91,420.63,260s11.2,11.62,13.18,31.31,13.41,23.26,14.41,21.21c2.22-4.58-11.43-78.31,1.13-64.61s42.13,20.3,30.23,12.09-15-25.22-14.74-38.54,1.84,4.8,16.25,12.09-15.68-18-5.67-12.09,35.05,2,20.68-1.89-27.86-16.82-30.5-30.61-.48-30.13,2.64-45-.28-56-4.91-64.61S433.1-8.67,364,.78s-79.35,95.12-83.13,102-7.18,6.42-13.08,4.43,1.75,7.28,12.33,12.47-12.47,3.88-24.37-1.13,11.14,14.45,23.23,17-10.95,4.25-25.5,2.27,21.22,10.19,28.34,13.6-11.53,21.26-18.14,26.64,7.49,2.59,14.74,5.1-18.71,23.9-30,21.82.75,12.66-18.42,20.12,41.47-5.19,43.07-2.83-6.51,7.46-6.23,12.18,19.36-4.72,27.49-16.43,1.7-27.21,6.23-29.1S305,229,292.55,239.57s-65.23,13.12-89.93,17.76-55.54,23.81-69.52,55.54S77.88,382.18,76.61,385.8c-2,5.67,7,11.71,0,28.9S2.55,519.55.1,556.2,42,659,42,659s65.36,92.57,77.64,99.75-36.46,14.35-52.7,85,68.57,225.85,79.34,240.31c5.39,7.22,1.73,58.57,1.7,108.81s3.59,99.38.57,105c-6.05,11.34-2.27,46.1-2.27,46.1H297.65s3.4-52.9,0-76,15.68-34.19,18.32-51-6.61-75.19,0-76.33c23.62-5.1,53.66-36.27,62.44-50.72s96.26,86.24,129.5,106.83,43.83,73.11,64.62,103.72c9.44,15.87-10.21,43.45-10.21,43.45H718.18s16.44-42.88,13.6-76.32-49.3-94.08-61.77-130.36S569.12,949.72,562.89,944.06s12.47-21,3.4-34-23.84,4-32-1.42S504,885.5,504.14,877.37s-4.45-32.49,4.34-35.33c38.54-12.47,109.39-73.68,128.09-75.95s57.81,12.47,107.12-13,29.47-66.5,44.2-76.7,61.78-29.29,81.62-44.59c7.65-7.08,10.77,23.24,25.5,18.42s24.66-18.42,24.66-18.42,6.8-23.52,18.7-27.49,14.45-4,20.4-3.11,1.7,12.75,17.57,11.33,15.87-10.2,15.87-30.32S973.21,553.84,953.1,554.41Zm-786.94,125c-8.94,0-31.17-61.21-33.44-78.21s-23.67-53.35-20.4-61.78c4.84-12.51,41.94-39.11,60.64-66.88C188.06,450.09,183.35,679.38,166.16,679.38Zm322.49,91.06c-13.61,0-14.36-32.87-10.21-32.87S527.56,748.9,526.05,754,502.25,770.44,488.65,770.44Z"/></g></g></svg>