<svg xmlns="http://www.w3.org/2000/svg" viewBox="0 0 159.23 157.83"><defs><style>.cls-1{fill:#1c181d;}.cls-2{fill:#fff;}.cls-3{font-size:17px;fill:#f15b4d;font-family:Chuck;}.cls-4{letter-spacing:0.1em;}.cls-5{font-size:24px;}.cls-6{font-size:29.5px;}</style></defs><g id="Layer_2" data-name="Layer 2"><g id="outlines"><ellipse class="cls-1" cx="78.63" cy="79.56" rx="78.63" ry="78.25"/><path class="cls-2" d="M13.53,47a68.37,68.37,0,0,1,14.65-20A75.22,75.22,0,0,1,49.31,13a.85.85,0,0,1,1,.39c.32.64-.38,1.1-.38,1.1s-12,5.6-20.75,13.8S15,47.87,15,47.87a.78.78,0,0,1-1.06.28A.82.82,0,0,1,13.53,47Z"/><path class="cls-2" d="M18.16,46.67A68.94,68.94,0,0,1,48.81,17.55s.74-.13,1,.43a1,1,0,0,1-.23,1,80.29,80.29,0,0,0-17.3,11.82A74.53,74.53,0,0,0,19.78,47.19s-.51.74-1.14.45A.89.89,0,0,1,18.16,46.67Z"/><path class="cls-2" d="M21.18,48.8A67.63,67.63,0,0,1,51.26,20.28s.73-.12,1,.42a1,1,0,0,1-.23,1,78.45,78.45,0,0,0-17,11.58,72.86,72.86,0,0,0-12.29,16s-.49.72-1.11.44A.87.87,0,0,1,21.18,48.8Z"/><path class="cls-2" d="M27.6,52a58.86,58.86,0,0,1,11-14.57A57.65,57.65,0,0,1,53.49,27a.81.81,0,0,1,.85.37.86.86,0,0,1-.2.9A67.63,67.63,0,0,0,39.53,38.41,64,64,0,0,0,29,52.44s-.43.63-.95.39A.76.76,0,0,1,27.6,52Z"/><path class="cls-2" d="M29.42,56.66A58.22,58.22,0,0,1,39,42.36,50.14,50.14,0,0,1,52,32.11a.68.68,0,0,1,.74.37.88.88,0,0,1-.17.87,59,59,0,0,0-12.72,10,62.8,62.8,0,0,0-9.2,13.78s-.38.62-.84.38A.79.79,0,0,1,29.42,56.66Z"/><path class="cls-2" d="M34.68,54.67a51.88,51.88,0,0,1,9-11.43,45.74,45.74,0,0,1,11.89-8.49.83.83,0,0,1,1.06.29,1,1,0,0,1-.11,1.19A42.83,42.83,0,0,0,45.4,43.84a63.69,63.69,0,0,0-9.09,11.68s-.57.68-1.19.36S34.68,54.67,34.68,54.67Z"/><path class="cls-2" d="M44.11,61.68a42.54,42.54,0,0,1,7-9.4,35.68,35.68,0,0,1,9.33-7,.61.61,0,0,1,.82.24.81.81,0,0,1-.08,1,33.39,33.39,0,0,0-8.69,6.26,52,52,0,0,0-7.13,9.61s-.45.56-.94.29S44.11,61.68,44.11,61.68Z"/><path class="cls-2" d="M42.63,57a45.35,45.35,0,0,1,6.9-8.25,37.33,37.33,0,0,1,8.94-6.46s.83-.2,1.09.41a.92.92,0,0,1-.18,1,34.35,34.35,0,0,0-8.24,5.75,56,56,0,0,0-7,8.48A.76.76,0,0,1,43,58.3C42.23,57.94,42.63,57,42.63,57Z"/><path class="cls-2" d="M48.06,62.19A45,45,0,0,1,55,54a37.35,37.35,0,0,1,8.94-6.47s.83-.2,1.09.42a.89.89,0,0,1-.19,1,34.19,34.19,0,0,0-8.23,5.75,56,56,0,0,0-7,8.48.76.76,0,0,1-1.08.33C47.66,63.11,48.06,62.19,48.06,62.19Z"/><path class="cls-2" d="M50.53,65.18a41.76,41.76,0,0,1,6-7.65,32.48,32.48,0,0,1,7.77-6s.73-.19,1,.38a.86.86,0,0,1-.16.94,29.66,29.66,0,0,0-7.15,5.34,51.19,51.19,0,0,0-6.14,7.86.64.64,0,0,1-.94.3C50.19,66,50.53,65.18,50.53,65.18Z"/><path class="cls-2" d="M39.42,55.22a45.31,45.31,0,0,1,8.18-9.95,41.6,41.6,0,0,1,10.85-7.39.77.77,0,0,1,1,.25.81.81,0,0,1-.1,1A39.34,39.34,0,0,0,49.2,45.79,55.24,55.24,0,0,0,40.9,56s-.52.59-1.09.31S39.42,55.22,39.42,55.22Z"/><path class="cls-2" d="M23.59,51.68A63.89,63.89,0,0,1,35.33,35.76a62.77,62.77,0,0,1,16-11.53s.68-.12.94.39a.91.91,0,0,1-.2,1A73.51,73.51,0,0,0,36.35,36.8,69.1,69.1,0,0,0,25.09,52.14s-.46.69-1,.43A.82.82,0,0,1,23.59,51.68Z"/><path class="cls-2" d="M145.72,109.56a72.63,72.63,0,0,1-15.14,21.62,81,81,0,0,1-22.28,15.54.92.92,0,0,1-1.14-.38c-.36-.67.38-1.18.38-1.18s12.75-6.31,21.87-15.27,14.76-21.18,14.76-21.18a.84.84,0,0,1,1.13-.32A.85.85,0,0,1,145.72,109.56Z"/><path class="cls-2" d="M141.2,109.69a75,75,0,0,1-13.61,18.9,73.78,73.78,0,0,1-18.7,13.79,1,1,0,0,1-1.1-.44,1.07,1.07,0,0,1,.22-1.14,86.67,86.67,0,0,0,18.37-13.42,81.21,81.21,0,0,0,13.06-18.21s.52-.81,1.21-.52A1,1,0,0,1,141.2,109.69Z"/><path class="cls-2" d="M138.33,107.17a73.69,73.69,0,0,1-13.26,18.62,72,72,0,0,1-18.22,13.57s-.78.16-1.08-.43a1.07,1.07,0,0,1,.22-1.13,84.34,84.34,0,0,0,17.9-13.21,80.22,80.22,0,0,0,12.72-17.93s.51-.81,1.18-.52A1,1,0,0,1,138.33,107.17Z"/><path class="cls-2" d="M132.43,103.25a65.72,65.72,0,0,1-11.2,16.61A60.92,60.92,0,0,1,105.81,132a.85.85,0,0,1-.91-.39,1,1,0,0,1,.18-1,71.25,71.25,0,0,0,15.14-11.78,71.16,71.16,0,0,0,10.75-16s.44-.72,1-.46A.88.88,0,0,1,132.43,103.25Z"/><path class="cls-2" d="M129.7,99.38A62.91,62.91,0,0,1,120.26,115a51.9,51.9,0,0,1-13,11.4.69.69,0,0,1-.77-.37,1,1,0,0,1,.15-.95A61,61,0,0,0,119.41,114a68.31,68.31,0,0,0,9.06-15.09s.36-.68.84-.43A.88.88,0,0,1,129.7,99.38Z"/><path class="cls-2" d="M124.43,102.79a51.89,51.89,0,0,1-8.63,11.68,45.87,45.87,0,0,1-11.65,8.82.82.82,0,0,1-1.06-.26,1,1,0,0,1,.07-1.2A42.82,42.82,0,0,0,114,113.92,63.34,63.34,0,0,0,122.78,102s.56-.7,1.19-.39S124.43,102.79,124.43,102.79Z"/><path class="cls-2" d="M114.3,96.6a42.33,42.33,0,0,1-6.76,9.6,36,36,0,0,1-9.13,7.24.62.62,0,0,1-.83-.22.81.81,0,0,1,0-1,33.33,33.33,0,0,0,8.52-6.5,52.2,52.2,0,0,0,6.86-9.8s.43-.57.93-.32S114.3,96.6,114.3,96.6Z"/><path class="cls-2" d="M116.62,100.27A46.75,46.75,0,0,1,110,109a37.32,37.32,0,0,1-8.77,7s-.83.23-1.11-.4a1,1,0,0,1,.16-1.06,34.4,34.4,0,0,0,8.08-6.2,57.74,57.74,0,0,0,6.82-9,.76.76,0,0,1,1.08-.36C117,99.3,116.62,100.27,116.62,100.27Z"/><path class="cls-2" d="M110,96.06a42.44,42.44,0,0,1-6,8,33.55,33.55,0,0,1-7.84,6.39s-.74.21-1-.37a.9.9,0,0,1,.14-1,30.77,30.77,0,0,0,7.22-5.69,52.66,52.66,0,0,0,6.1-8.27.67.67,0,0,1,1-.34C110.31,95.17,110,96.06,110,96.06Z"/><path class="cls-2" d="M108.47,92.15a49.21,49.21,0,0,1-6.61,9.22,37.38,37.38,0,0,1-8.7,7.33s-.82.24-1.1-.42a1.08,1.08,0,0,1,.16-1.12,34.19,34.19,0,0,0,8-6.53A60,60,0,0,0,107,91.15a.73.73,0,0,1,1.06-.39C108.84,91.13,108.47,92.15,108.47,92.15Z"/><path class="cls-2" d="M119,103.36a45.26,45.26,0,0,1-7.89,10.17,41.94,41.94,0,0,1-10.64,7.7.78.78,0,0,1-1-.23.82.82,0,0,1,.06-1,39.25,39.25,0,0,0,9.93-6.91,55.57,55.57,0,0,0,8-10.39s.5-.61,1.08-.34S119,103.36,119,103.36Z"/><path class="cls-2" d="M136.55,102.69a72.39,72.39,0,0,1-11.92,18.42A66.26,66.26,0,0,1,108,134.66a.92.92,0,0,1-1-.41,1.07,1.07,0,0,1,.18-1.11A77.8,77.8,0,0,0,123.51,120,78.33,78.33,0,0,0,135,102.21s.46-.79,1.08-.52A1,1,0,0,1,136.55,102.69Z"/><circle class="cls-2" cx="78.72" cy="80.08" r="26.99"/><circle class="cls-1" cx="78.63" cy="79.87" r="2.82"/><text/><text class="cls-3" transform="translate(4.72 68.13) scale(1 1.01)"><tspan class="cls-4">the </tspan><tspan class="cls-5" x="-0.37" y="34.58">basement </tspan><tspan class="cls-6" x="22.18" y="69.17">discs</tspan></text></g></g></svg>