<svg xmlns="http://www.w3.org/2000/svg" viewBox="0 0 962.22 768.44"><defs><style>.cls-1{fill:#565451;}</style></defs><g id="Layer_2" data-name="Layer 2"><g id="Layer_9" data-name="Layer 9"><path class="cls-1" d="M127.63,136.32S114.8,132.55,104,147.38s-11.66,39.49-12.07,42.51,1.25,132.59-.59,150.57-4.7,88.2-4.7,88.2l10.73-17.44c.68-36.22,3.41-57.13,3.69-71.1.33-16.1-1-135.31.34-150.23s5.3-41.08,22-44.27Z" transform="translate(0)"/><path class="cls-1" d="M123.35,145.62c-.25-6-.08-9.39,5.87-13.75s119.13,46.2,125.8,45.82,8.17-18.65,21.25-18.82,12.41,15.43,17.94,16.43,11.24-13.58,24.15-8.72,5.36,13.75,9.55,15.93,12.25-8.72,21,1.18,1.85,19.28,5.54,20.62,5.7-13.92,21.46-11.23,10.23,14.08,10.56,18.1,5.7,3.86,8.47,9.65-3.44,15.5-2.1,19.28,4.21,3.49,7.09,4.23,25.61-2.39,46.57,12,24.65,34.29,15.76,52-31.44,27.08-53,16.09-32-36-35.22-33.53S357.43,307.76,346,313s-62.45-5.62-80.56,3.94S253,338.45,243.07,350.35s-61.25,87.79-62.24,114.18c-2.31,61.38-24.44,77.47-11.7,84s105.3-27,107.64-28.17-.83-1.84.34-4.19,22.47-8.89,28.34-8.55,7.71-10.23,11.23-10.9,4.19.5,9.89,0-2.65-12.21,3.86-15.59,7.71.5,12.58-6.54,5.86-11.07,13.24-15.09,10.29.78,20.79-4,71-47.78,107.23-49,46,8.05,60.87,2.51,24.39-5,26.66-5.53-9.65-10.31-8.64-20.71,3.35-12.74,0-15.76-11.74-9.22-12.74-17.77,7.21-26.33,7.37-32.53-5-23-9.39-24.82S525.77,276.24,525.6,270s7-18.45,1.68-22.47-26.16-.67-27.5-15.76,31.35-53.15,34.88-57.68-13.41-22.73-6.12-38.06,10.14-14.93,11.82-24.9,1.51-9.64,3.77-14.59,5.62-6.46,9.3-11.57-3-16.52-7.79-18.36S535,67.49,528,62.88,525.1,52.73,530.13,47s6.2-16.77,18.78-16.09,10.23-2.52,20.79-2.69,21-6.2,30-6.54,6-7.79,13.08-11,5.3-.74,13.08-3.4,15.34-7.16,21-7.16,3.14.46,9.43,3.14S675.17-1,685,.13,698.14,2.1,706.1,6s18.53,4.61,36.72,7.79,22.89,9.9,39,18.78S793,52.73,803.6,60.78s13.25,21.3,22.47,28.51,4,24.14,8.55,33.7,13.58,13.24,16.6,55.33-22.13,62.12-25.65,65.9-2.77,17.1-10.57,21.63,4,21.63-2.51,30.68-10.06,9.56-16.6,11.07-8.55-1.26-13.08,17.6,14.09,67.91,49.3,84.76c30.81,14.74,94.74,57.8,129.78,75.41l.33,283.07H407.56c-7-77.29,13-129.16,4.69-132.54-21-1.34-29.09,35.29-44.93,32.36s-29.84-39.53-32.87-38.4C206.6,669.27,194.53,666.5,71.54,678.15,68.8,673.93,61,768.44,61,768.44H49.66s13.83-87.1,10.82-91.13-66.4-14.25-60-43.09,18.11-42.92,25.32-71.09,33.45-91.8,51.56-120,41.25-72.69,55.08-89.29,26.91-35.71,34.71-46.27,6.54-25.16,11.57-31.19,6.41-2.91,10.81-14.84,7.8-24.15,16.85-35.21,14.59-17.36,13.58-23.64S123.61,151.66,123.35,145.62Z" transform="translate(0)"/></g></g></svg>