<svg xmlns="http://www.w3.org/2000/svg" viewBox="0 0 839.11 1144.45"><defs><style>.cls-1{fill:#454240;}.cls-2{fill:#ece3d6;opacity:0.5;}.cls-3{fill:#ece6e3;}</style></defs><g id="Layer_2" data-name="Layer 2"><g id="Layer_6" data-name="Layer 6"><path class="cls-1" d="M838.36,63.37l.75,1017.33a574.92,574.92,0,0,1-264.05,63.75C257.46,1144.45,0,888.26,0,572.23S257.46,0,575.06,0a574.9,574.9,0,0,1,263.3,63.37"/><path class="cls-2" d="M839.06,1016.07c-31.77,19-55.46,30.06-55.46,30.06s-5.17,3.39-2.85,8.21,7.85,2.85,7.85,2.85,20.56-8.31,50.51-25.53"/><path class="cls-3" d="M839.11,982.57a603.94,603.94,0,0,1-52.56,30s-3.73,3.62-1.74,7.76,7.49,3.21,7.49,3.21,19.08-8.34,46.72-25.51"/><path class="cls-3" d="M839,950.56a616.53,616.53,0,0,1-70.61,41.92s-3.66,3.55-1.71,7.6,7.36,3.14,7.36,3.14S802,991,839,965.78"/><path class="cls-3" d="M839,887.87c-42.07,34-86.35,56-86.35,56s-3.14,3.11-1.47,6.66,6.33,2.76,6.33,2.76,37.75-16.79,81.5-52"/><path class="cls-3" d="M838.89,851.76a457.7,457.7,0,0,1-74.27,54.09s-2.74,3.06-1.28,6.54,5.51,2.71,5.51,2.71,32.34-16.22,70-50.19"/><path class="cls-3" d="M838.89,805.09c-6.63,7.72-13.73,15.42-21.21,22.66C779.19,865,735.17,884.4,735.17,884.4s-4,4.28-.78,8.87a6.14,6.14,0,0,0,7.86,2.21S786,876,830.79,832.2c2.82-2.75,5.51-5.48,8.13-8.2"/><path class="cls-3" d="M827.3,694.93s-17.17,34-52.34,70S705.5,817,705.5,817a4.67,4.67,0,0,1-6.16-1.82c-2.54-3.78.61-7.3.61-7.3a248.79,248.79,0,0,0,64.73-46.6c30.19-30.63,53.11-71.55,53.11-71.55s3.35-4.18,7-2.2S827.3,694.93,827.3,694.93Z"/><path class="cls-3" d="M838.33,729.62S821.23,758,786.94,791s-66.56,48.15-66.56,48.15-6.21,1.47-8.14-3.08a6.76,6.76,0,0,1,1.38-7.56,256,256,0,0,0,61.31-42.84c29.45-28.07,52.53-63.16,52.53-63.16s2.27-5.09,8.06-2.43S838.33,729.62,838.33,729.62Z"/><path class="cls-3" d="M797.92,691.08s-17.1,28.41-51.39,61.4S680,800.63,680,800.63s-6.21,1.47-8.14-3.08a6.76,6.76,0,0,1,1.38-7.56,255.63,255.63,0,0,0,61.31-42.84C764,719.08,787.05,684,787.05,684s2.27-5.08,8.06-2.43S797.92,691.08,797.92,691.08Z"/><path class="cls-3" d="M779.48,668.84s-14.86,26.35-44.68,56.95-57.87,44.66-57.87,44.66-5.4,1.36-7.08-2.86a6.55,6.55,0,0,1,1.21-7,222,222,0,0,0,53.3-39.74c25.6-26,45.67-58.57,45.67-58.57s2-4.72,7-2.26S779.48,668.84,779.48,668.84Z"/><path class="cls-3" d="M838.87,755.79c-11.09,15.55-28.79,38.35-49.47,57.43-35.13,32.42-75.3,49.3-75.3,49.3s-3.66,3.73-.71,7.73a5.78,5.78,0,0,0,7.17,1.92s39.88-17,80.8-55.07a373.48,373.48,0,0,0,37.53-40.54"/><path class="cls-3" d="M839,918.94a582.9,582.9,0,0,1-71,44.74s-3.37,3.41-1.48,7.21,6.93,2.87,6.93,2.87,28.7-13.21,65.66-40.29"/><path class="cls-3" d="M70.64,338.34s33.62-82.67,112.74-161.06S349.28,61.6,349.28,61.6s5.89-2.25,8.52,2.79-2.82,8.8-2.82,8.8-95,47-162.9,113.7S82.17,344.62,82.17,344.62s-2.54,4.91-8.46,2.44S70.64,338.34,70.64,338.34Z"/><path class="cls-3" d="M104.26,337.33s33.12-71.64,101.35-140.74S344.86,93.92,344.86,93.92s5.94-1.18,8.21,3.27-1.65,8.52-1.65,8.52-78.19,41.09-136.77,99.9S117.42,341.2,117.42,341.2s-3.92,6.08-9,3.9S104.26,337.33,104.26,337.33Z"/><path class="cls-3" d="M125.67,356.12s32.26-70.57,98.73-138.63,135.69-101.1,135.69-101.1,5.79-1.16,8,3.23-1.61,8.38-1.61,8.38-76.19,40.46-133.28,98.38-94.72,133.55-94.72,133.55-3.81,6-8.79,3.84S125.67,356.12,125.67,356.12Z"/><path class="cls-3" d="M169.56,385.35s27.24-63,83.46-123.73,114.8-90.16,114.8-90.16,4.9-1,6.78,2.9-1.34,7.49-1.34,7.49-64.49,36.05-112.77,87.72-80.06,119.2-80.06,119.2-3.22,5.35-7.44,3.42S169.56,385.35,169.56,385.35Z"/><path class="cls-3" d="M189.9,414.14s22.88-59.43,70.29-116.64,96.91-84.85,96.91-84.85,4.14-1,5.75,2.76-1.12,7.07-1.12,7.07S307.25,256.36,266.54,305s-67.43,112.38-67.43,112.38-2.71,5-6.29,3.21S189.9,414.14,189.9,414.14Z"/><path class="cls-3" d="M229.13,388.71s20.73-41.92,64.33-86.93,86.74-65.72,86.74-65.72a6.13,6.13,0,0,1,7.91,2c3.37,4.51-.52,8.9-.52,8.9s-43.47,20.62-80.9,58.93-65.26,88.83-65.26,88.83-4.13,5.21-8.84,2.93S229.13,388.71,229.13,388.71Z"/><path class="cls-3" d="M304.57,434.82s16.22-34.46,50.37-71.44,68-54,68-54a4.68,4.68,0,0,1,6.21,1.64c2.65,3.71-.4,7.32-.4,7.32a248.81,248.81,0,0,0-63.4,48.39c-29.33,31.46-51.09,73-51.09,73s-3.24,4.28-6.93,2.4S304.57,434.82,304.57,434.82Z"/><path class="cls-3" d="M287.3,407.49s16.31-30,49.72-65.25,65.3-51.9,65.3-51.9,6.18-1.7,8.25,3a7.22,7.22,0,0,1-1.17,7.9,255.93,255.93,0,0,0-60.2,46.23c-28.69,30-50.8,67.11-50.8,67.11s-2.12,5.35-8,2.75S287.3,407.49,287.3,407.49Z"/><path class="cls-3" d="M336.84,438.86S351.4,411.34,381.26,379s58.37-47.6,58.37-47.6,5.53-1.56,7.38,2.73a6.71,6.71,0,0,1-1,7.24,229.18,229.18,0,0,0-53.81,42.41c-25.64,27.51-45.39,61.57-45.39,61.57s-1.89,4.9-7.16,2.52S336.84,438.86,336.84,438.86Z"/><path class="cls-3" d="M348,468s16.14-31.58,49.25-68.67S462,344.7,462,344.7s6.13-1.78,8.19,3.15a7.9,7.9,0,0,1-1.15,8.32s-31.25,17.06-59.68,48.62-50.33,70.64-50.33,70.64-2.09,5.63-7.94,2.89S348,468,348,468Z"/><path class="cls-3" d="M269.35,384.5s19-36.51,58.81-75.74,79.23-57.31,79.23-57.31a5.77,5.77,0,0,1,7.22,1.72c3.07,3.91-.49,7.74-.49,7.74s-39.68,18-73.9,51.39-59.65,77.4-59.65,77.4-3.78,4.53-8.07,2.56S269.35,384.5,269.35,384.5Z"/><path class="cls-3" d="M138.91,389.47s28.57-69.59,88.78-137.18S351.23,151.41,351.23,151.41s5.33-1.21,7.45,3.06-1.34,8.24-1.34,8.24S287.69,203.37,236,260.89,150.82,393,150.82,393s-3.42,5.92-8,3.88S138.91,389.47,138.91,389.47Z"/><circle class="cls-3" cx="569.58" cy="557.89" r="200.97"/><circle class="cls-1" cx="570.21" cy="559.43" r="20.98"/></g></g></svg>